<mxfile host="app.diagrams.net" modified="2021-02-15T20:44:03.724Z" agent="5.0 (Windows)" etag="Hi27j4mGjMwnAs2G-LoR" version="14.3.2" type="github">
  <diagram id="iUi8g271cqGeeiUrCEH1" name="Page-1">
    <mxGraphModel dx="1185" dy="636" grid="1" gridSize="10" guides="1" tooltips="1" connect="1" arrows="1" fold="1" page="1" pageScale="1" pageWidth="850" pageHeight="1100" math="0" shadow="0">
      <root>
        <mxCell id="0" />
        <mxCell id="1" parent="0" />
        <mxCell id="WtF5FToV0hVjw0mfeZgF-1" value="" style="rounded=1;whiteSpace=wrap;html=1;" parent="1" vertex="1">
          <mxGeometry x="250" y="182.5" width="390" height="397.5" as="geometry" />
        </mxCell>
        <mxCell id="WtF5FToV0hVjw0mfeZgF-2" value="Jetson" style="text;html=1;strokeColor=none;fillColor=none;align=center;verticalAlign=middle;whiteSpace=wrap;rounded=0;" parent="1" vertex="1">
          <mxGeometry x="455" y="162.5" width="40" height="20" as="geometry" />
        </mxCell>
        <mxCell id="A5llq4PZ68e3I42jYt7O-35" style="edgeStyle=orthogonalEdgeStyle;rounded=0;orthogonalLoop=1;jettySize=auto;html=1;exitX=1;exitY=0.5;exitDx=0;exitDy=0;entryX=0;entryY=0.5;entryDx=0;entryDy=0;startArrow=classic;startFill=1;" edge="1" parent="1" source="WtF5FToV0hVjw0mfeZgF-3" target="A5llq4PZ68e3I42jYt7O-1">
          <mxGeometry relative="1" as="geometry" />
        </mxCell>
        <mxCell id="A5llq4PZ68e3I42jYt7O-41" style="edgeStyle=orthogonalEdgeStyle;rounded=0;orthogonalLoop=1;jettySize=auto;html=1;exitX=0.5;exitY=1;exitDx=0;exitDy=0;entryX=0.5;entryY=0;entryDx=0;entryDy=0;startArrow=none;startFill=0;" edge="1" parent="1" source="WtF5FToV0hVjw0mfeZgF-3" target="A5llq4PZ68e3I42jYt7O-39">
          <mxGeometry relative="1" as="geometry" />
        </mxCell>
        <mxCell id="WtF5FToV0hVjw0mfeZgF-3" value="GPS Control and Collection" style="text;html=1;fillColor=none;align=center;verticalAlign=middle;whiteSpace=wrap;rounded=0;strokeColor=#0000FF;" parent="1" vertex="1">
          <mxGeometry x="495" y="207.5" width="100" height="40" as="geometry" />
        </mxCell>
        <mxCell id="A5llq4PZ68e3I42jYt7O-22" style="edgeStyle=orthogonalEdgeStyle;rounded=0;orthogonalLoop=1;jettySize=auto;html=1;exitX=0;exitY=0.5;exitDx=0;exitDy=0;entryX=1;entryY=0.5;entryDx=0;entryDy=0;startArrow=classic;startFill=1;" edge="1" parent="1" source="WtF5FToV0hVjw0mfeZgF-5" target="WtF5FToV0hVjw0mfeZgF-17">
          <mxGeometry relative="1" as="geometry" />
        </mxCell>
        <mxCell id="A5llq4PZ68e3I42jYt7O-31" style="edgeStyle=orthogonalEdgeStyle;rounded=0;orthogonalLoop=1;jettySize=auto;html=1;exitX=1;exitY=0.5;exitDx=0;exitDy=0;entryX=0;entryY=0.5;entryDx=0;entryDy=0;startArrow=none;startFill=0;" edge="1" parent="1" source="WtF5FToV0hVjw0mfeZgF-5" target="A5llq4PZ68e3I42jYt7O-13">
          <mxGeometry relative="1" as="geometry" />
        </mxCell>
        <mxCell id="WtF5FToV0hVjw0mfeZgF-5" value="Wi-Fi Module Control" style="text;html=1;align=center;verticalAlign=middle;whiteSpace=wrap;rounded=0;strokeColor=#FF0000;" parent="1" vertex="1">
          <mxGeometry x="260" y="487.5" width="55" height="45" as="geometry" />
        </mxCell>
        <mxCell id="A5llq4PZ68e3I42jYt7O-23" style="edgeStyle=orthogonalEdgeStyle;rounded=0;orthogonalLoop=1;jettySize=auto;html=1;exitX=0;exitY=0.5;exitDx=0;exitDy=0;entryX=1;entryY=0.5;entryDx=0;entryDy=0;startArrow=none;startFill=0;strokeColor=none;" edge="1" parent="1" source="WtF5FToV0hVjw0mfeZgF-6" target="WtF5FToV0hVjw0mfeZgF-22">
          <mxGeometry relative="1" as="geometry" />
        </mxCell>
        <mxCell id="A5llq4PZ68e3I42jYt7O-26" style="edgeStyle=orthogonalEdgeStyle;rounded=0;orthogonalLoop=1;jettySize=auto;html=1;exitX=0;exitY=0.5;exitDx=0;exitDy=0;entryX=1;entryY=0.5;entryDx=0;entryDy=0;startArrow=none;startFill=0;" edge="1" parent="1" source="WtF5FToV0hVjw0mfeZgF-6" target="WtF5FToV0hVjw0mfeZgF-22">
          <mxGeometry relative="1" as="geometry" />
        </mxCell>
        <mxCell id="WtF5FToV0hVjw0mfeZgF-6" value="Switch Control" style="text;html=1;fillColor=none;align=center;verticalAlign=middle;whiteSpace=wrap;rounded=0;strokeColor=#FF0000;" parent="1" vertex="1">
          <mxGeometry x="260" y="442.5" width="50" height="30" as="geometry" />
        </mxCell>
        <mxCell id="A5llq4PZ68e3I42jYt7O-29" style="edgeStyle=orthogonalEdgeStyle;rounded=0;orthogonalLoop=1;jettySize=auto;html=1;exitX=0.25;exitY=1;exitDx=0;exitDy=0;entryX=0.5;entryY=0;entryDx=0;entryDy=0;startArrow=none;startFill=0;" edge="1" parent="1" source="WtF5FToV0hVjw0mfeZgF-7" target="A5llq4PZ68e3I42jYt7O-15">
          <mxGeometry relative="1" as="geometry" />
        </mxCell>
        <mxCell id="A5llq4PZ68e3I42jYt7O-51" style="edgeStyle=orthogonalEdgeStyle;rounded=0;orthogonalLoop=1;jettySize=auto;html=1;exitX=0;exitY=0.5;exitDx=0;exitDy=0;entryX=1.014;entryY=0.463;entryDx=0;entryDy=0;entryPerimeter=0;startArrow=none;startFill=0;" edge="1" parent="1" source="WtF5FToV0hVjw0mfeZgF-7" target="WtF5FToV0hVjw0mfeZgF-26">
          <mxGeometry relative="1" as="geometry" />
        </mxCell>
        <mxCell id="WtF5FToV0hVjw0mfeZgF-7" value="Motor Control" style="text;html=1;fillColor=none;align=center;verticalAlign=middle;whiteSpace=wrap;rounded=0;strokeColor=#0000FF;" parent="1" vertex="1">
          <mxGeometry x="277.5" y="207" width="50" height="30" as="geometry" />
        </mxCell>
        <mxCell id="A5llq4PZ68e3I42jYt7O-30" style="edgeStyle=orthogonalEdgeStyle;rounded=0;orthogonalLoop=1;jettySize=auto;html=1;exitX=0.5;exitY=0;exitDx=0;exitDy=0;entryX=0.5;entryY=1;entryDx=0;entryDy=0;startArrow=none;startFill=0;" edge="1" parent="1" source="WtF5FToV0hVjw0mfeZgF-17" target="WtF5FToV0hVjw0mfeZgF-22">
          <mxGeometry relative="1" as="geometry" />
        </mxCell>
        <mxCell id="WtF5FToV0hVjw0mfeZgF-17" value="" style="rounded=1;whiteSpace=wrap;html=1;strokeColor=#FF0000;" parent="1" vertex="1">
          <mxGeometry x="15" y="510" width="120" height="45" as="geometry" />
        </mxCell>
        <mxCell id="WtF5FToV0hVjw0mfeZgF-21" value="Switch Module" style="text;html=1;strokeColor=none;fillColor=none;align=center;verticalAlign=middle;whiteSpace=wrap;rounded=0;" parent="1" vertex="1">
          <mxGeometry x="32.5" y="290" width="70" height="30" as="geometry" />
        </mxCell>
        <mxCell id="WtF5FToV0hVjw0mfeZgF-22" value="" style="rounded=1;whiteSpace=wrap;html=1;strokeColor=#FF0000;" parent="1" vertex="1">
          <mxGeometry x="10" y="322.5" width="120" height="165" as="geometry" />
        </mxCell>
        <mxCell id="WtF5FToV0hVjw0mfeZgF-23" value="Wi-Fi Module" style="text;html=1;strokeColor=none;fillColor=none;align=center;verticalAlign=middle;whiteSpace=wrap;rounded=0;" parent="1" vertex="1">
          <mxGeometry x="32.5" y="520" width="85" height="25" as="geometry" />
        </mxCell>
        <mxCell id="WtF5FToV0hVjw0mfeZgF-24" value="" style="rounded=1;whiteSpace=wrap;html=1;strokeColor=#0000FF;" parent="1" vertex="1">
          <mxGeometry x="670" y="177.5" width="120" height="45" as="geometry" />
        </mxCell>
        <mxCell id="WtF5FToV0hVjw0mfeZgF-25" value="GPS Module" style="text;html=1;strokeColor=none;fillColor=none;align=center;verticalAlign=middle;whiteSpace=wrap;rounded=0;" parent="1" vertex="1">
          <mxGeometry x="695" y="190" width="70" height="20" as="geometry" />
        </mxCell>
        <mxCell id="WtF5FToV0hVjw0mfeZgF-26" value="" style="rounded=1;whiteSpace=wrap;html=1;strokeColor=#0000FF;" parent="1" vertex="1">
          <mxGeometry x="15" y="137.5" width="120" height="140" as="geometry" />
        </mxCell>
        <mxCell id="WtF5FToV0hVjw0mfeZgF-27" value="Motors" style="text;html=1;strokeColor=none;fillColor=none;align=center;verticalAlign=middle;whiteSpace=wrap;rounded=0;" parent="1" vertex="1">
          <mxGeometry x="37.5" y="110" width="70" height="20" as="geometry" />
        </mxCell>
        <mxCell id="WtF5FToV0hVjw0mfeZgF-35" value="Servo 1" style="text;html=1;strokeColor=none;fillColor=none;align=center;verticalAlign=middle;whiteSpace=wrap;rounded=0;" parent="1" vertex="1">
          <mxGeometry x="50" y="147.5" width="50" height="20" as="geometry" />
        </mxCell>
        <mxCell id="WtF5FToV0hVjw0mfeZgF-37" value="Servo 2" style="text;html=1;strokeColor=none;fillColor=none;align=center;verticalAlign=middle;whiteSpace=wrap;rounded=0;" parent="1" vertex="1">
          <mxGeometry x="50" y="177.5" width="50" height="20" as="geometry" />
        </mxCell>
        <mxCell id="WtF5FToV0hVjw0mfeZgF-39" value="Servo 3" style="text;html=1;strokeColor=none;fillColor=none;align=center;verticalAlign=middle;whiteSpace=wrap;rounded=0;" parent="1" vertex="1">
          <mxGeometry x="50" y="207.5" width="50" height="20" as="geometry" />
        </mxCell>
        <mxCell id="WtF5FToV0hVjw0mfeZgF-40" value="Servo 4" style="text;html=1;strokeColor=none;fillColor=none;align=center;verticalAlign=middle;whiteSpace=wrap;rounded=0;" parent="1" vertex="1">
          <mxGeometry x="50" y="237.5" width="50" height="20" as="geometry" />
        </mxCell>
        <mxCell id="WtF5FToV0hVjw0mfeZgF-45" value="Antenna 2" style="text;html=1;strokeColor=none;fillColor=none;align=center;verticalAlign=middle;whiteSpace=wrap;rounded=0;" parent="1" vertex="1">
          <mxGeometry x="37.5" y="369.5" width="60" height="20" as="geometry" />
        </mxCell>
        <mxCell id="WtF5FToV0hVjw0mfeZgF-46" value="Antenna 1" style="text;html=1;strokeColor=none;fillColor=none;align=center;verticalAlign=middle;whiteSpace=wrap;rounded=0;" parent="1" vertex="1">
          <mxGeometry x="37.5" y="334.5" width="60" height="20" as="geometry" />
        </mxCell>
        <mxCell id="WtF5FToV0hVjw0mfeZgF-47" value="Antenna 3" style="text;html=1;strokeColor=none;fillColor=none;align=center;verticalAlign=middle;whiteSpace=wrap;rounded=0;" parent="1" vertex="1">
          <mxGeometry x="37.5" y="409.5" width="60" height="20" as="geometry" />
        </mxCell>
        <mxCell id="WtF5FToV0hVjw0mfeZgF-48" value="Antenna 4" style="text;html=1;strokeColor=none;fillColor=none;align=center;verticalAlign=middle;whiteSpace=wrap;rounded=0;" parent="1" vertex="1">
          <mxGeometry x="37.5" y="449.5" width="60" height="20" as="geometry" />
        </mxCell>
        <mxCell id="WtF5FToV0hVjw0mfeZgF-57" value="System Level Design" style="text;html=1;fontSize=24;fontStyle=1;verticalAlign=middle;align=center;strokeColor=#000000;" parent="1" vertex="1">
          <mxGeometry x="280" y="120" width="255" height="40" as="geometry" />
        </mxCell>
        <mxCell id="WtF5FToV0hVjw0mfeZgF-62" value="&lt;span style=&quot;color: rgba(0 , 0 , 0 , 0) ; font-family: monospace ; font-size: 0px&quot;&gt;%3CmxGraphModel%3E%3Croot%3E%3CmxCell%20id%3D%220%22%2F%3E%3CmxCell%20id%3D%221%22%20parent%3D%220%22%2F%3E%3CmxCell%20id%3D%222%22%20value%3D%22%22%20style%3D%22rounded%3D0%3BwhiteSpace%3Dwrap%3Bhtml%3D1%3BfillColor%3Dnone%3BstrokeColor%3D%230000FF%3B%22%20vertex%3D%221%22%20parent%3D%221%22%3E%3CmxGeometry%20x%3D%2275%22%20y%3D%22390%22%20width%3D%2220%22%20height%3D%2210%22%20as%3D%22geometry%22%2F%3E%3C%2FmxCell%3E%3C%2Froot%3E%3C%2FmxGraphModel%3E&lt;/span&gt;" style="rounded=1;whiteSpace=wrap;html=1;strokeColor=#000000;" parent="1" vertex="1">
          <mxGeometry x="30" y="600" width="125" height="95" as="geometry" />
        </mxCell>
        <mxCell id="WtF5FToV0hVjw0mfeZgF-63" value="Legend" style="text;html=1;strokeColor=none;fillColor=none;align=center;verticalAlign=middle;whiteSpace=wrap;rounded=0;" parent="1" vertex="1">
          <mxGeometry x="50" y="605" width="40" height="20" as="geometry" />
        </mxCell>
        <mxCell id="WtF5FToV0hVjw0mfeZgF-64" value="Erik F." style="text;html=1;strokeColor=none;fillColor=none;align=center;verticalAlign=middle;whiteSpace=wrap;rounded=0;" parent="1" vertex="1">
          <mxGeometry x="85" y="626.25" width="45" height="20" as="geometry" />
        </mxCell>
        <mxCell id="WtF5FToV0hVjw0mfeZgF-65" value="John T." style="text;html=1;strokeColor=none;fillColor=none;align=center;verticalAlign=middle;whiteSpace=wrap;rounded=0;" parent="1" vertex="1">
          <mxGeometry x="85" y="645" width="50" height="20" as="geometry" />
        </mxCell>
        <mxCell id="WtF5FToV0hVjw0mfeZgF-66" value="" style="rounded=0;whiteSpace=wrap;html=1;fillColor=none;strokeColor=#FF0000;" parent="1" vertex="1">
          <mxGeometry x="65" y="631.25" width="20" height="10" as="geometry" />
        </mxCell>
        <mxCell id="WtF5FToV0hVjw0mfeZgF-67" value="" style="rounded=0;whiteSpace=wrap;html=1;fillColor=none;strokeColor=#0000FF;" parent="1" vertex="1">
          <mxGeometry x="65" y="650" width="20" height="10" as="geometry" />
        </mxCell>
        <mxCell id="uT0wznO6GQe00IirvVxP-1" value="Motors&lt;br&gt;&lt;br&gt;PWM controller&lt;br&gt;&lt;br&gt;H-bridge" style="whiteSpace=wrap;html=1;aspect=fixed;strokeColor=#00FF00;" parent="1" vertex="1">
          <mxGeometry x="670" y="476.25" width="170" height="170" as="geometry" />
        </mxCell>
        <mxCell id="uT0wznO6GQe00IirvVxP-7" value="Rc Car" style="text;html=1;strokeColor=none;fillColor=none;align=center;verticalAlign=middle;whiteSpace=wrap;rounded=0;" parent="1" vertex="1">
          <mxGeometry x="725" y="452.5" width="40" height="20" as="geometry" />
        </mxCell>
        <mxCell id="A5llq4PZ68e3I42jYt7O-36" style="edgeStyle=orthogonalEdgeStyle;rounded=0;orthogonalLoop=1;jettySize=auto;html=1;exitX=0.5;exitY=1;exitDx=0;exitDy=0;entryX=0;entryY=0.75;entryDx=0;entryDy=0;startArrow=classic;startFill=1;" edge="1" parent="1" source="mKIfRyW66ifjaWt-kGTA-1" target="uT0wznO6GQe00IirvVxP-1">
          <mxGeometry relative="1" as="geometry" />
        </mxCell>
        <mxCell id="A5llq4PZ68e3I42jYt7O-49" style="edgeStyle=orthogonalEdgeStyle;rounded=0;orthogonalLoop=1;jettySize=auto;html=1;exitX=1;exitY=0.5;exitDx=0;exitDy=0;entryX=0.5;entryY=1;entryDx=0;entryDy=0;startArrow=none;startFill=0;" edge="1" parent="1" source="mKIfRyW66ifjaWt-kGTA-1" target="A5llq4PZ68e3I42jYt7O-47">
          <mxGeometry relative="1" as="geometry" />
        </mxCell>
        <mxCell id="mKIfRyW66ifjaWt-kGTA-1" value="Rc Car base control" style="whiteSpace=wrap;html=1;aspect=fixed;strokeColor=#00FF00;" parent="1" vertex="1">
          <mxGeometry x="535" y="520" width="45" height="45" as="geometry" />
        </mxCell>
        <mxCell id="A5llq4PZ68e3I42jYt7O-37" style="edgeStyle=orthogonalEdgeStyle;rounded=0;orthogonalLoop=1;jettySize=auto;html=1;exitX=0.5;exitY=1;exitDx=0;exitDy=0;entryX=1;entryY=0.5;entryDx=0;entryDy=0;startArrow=classic;startFill=1;" edge="1" parent="1" source="mKIfRyW66ifjaWt-kGTA-6" target="mKIfRyW66ifjaWt-kGTA-12">
          <mxGeometry relative="1" as="geometry" />
        </mxCell>
        <mxCell id="A5llq4PZ68e3I42jYt7O-38" style="edgeStyle=orthogonalEdgeStyle;rounded=0;orthogonalLoop=1;jettySize=auto;html=1;exitX=1;exitY=0.5;exitDx=0;exitDy=0;entryX=0;entryY=0.5;entryDx=0;entryDy=0;startArrow=classic;startFill=1;" edge="1" parent="1" source="mKIfRyW66ifjaWt-kGTA-6" target="mKIfRyW66ifjaWt-kGTA-1">
          <mxGeometry relative="1" as="geometry" />
        </mxCell>
        <mxCell id="mKIfRyW66ifjaWt-kGTA-6" value="obstacle avoidance&amp;nbsp;" style="whiteSpace=wrap;html=1;aspect=fixed;strokeColor=#66CC00;" parent="1" vertex="1">
          <mxGeometry x="445" y="513" width="60" height="60" as="geometry" />
        </mxCell>
        <mxCell id="mKIfRyW66ifjaWt-kGTA-9" value="Abdullah" style="text;html=1;strokeColor=none;fillColor=none;align=center;verticalAlign=middle;whiteSpace=wrap;rounded=0;" parent="1" vertex="1">
          <mxGeometry x="92.5" y="667.5" width="40" height="20" as="geometry" />
        </mxCell>
        <mxCell id="mKIfRyW66ifjaWt-kGTA-11" value="" style="rounded=0;whiteSpace=wrap;html=1;fillColor=none;strokeColor=#66CC00;" parent="1" vertex="1">
          <mxGeometry x="65" y="672.5" width="20" height="10" as="geometry" />
        </mxCell>
        <mxCell id="mKIfRyW66ifjaWt-kGTA-12" value="Obstacle avoidance sensor" style="rounded=1;whiteSpace=wrap;html=1;strokeColor=#66CC00;" parent="1" vertex="1">
          <mxGeometry x="285" y="607.5" width="120" height="60" as="geometry" />
        </mxCell>
        <mxCell id="A5llq4PZ68e3I42jYt7O-3" style="edgeStyle=orthogonalEdgeStyle;rounded=0;orthogonalLoop=1;jettySize=auto;html=1;exitX=0.5;exitY=0;exitDx=0;exitDy=0;entryX=0.5;entryY=1;entryDx=0;entryDy=0;startArrow=classic;startFill=1;" edge="1" parent="1" source="A5llq4PZ68e3I42jYt7O-1" target="WtF5FToV0hVjw0mfeZgF-24">
          <mxGeometry relative="1" as="geometry" />
        </mxCell>
        <mxCell id="A5llq4PZ68e3I42jYt7O-1" value="ESP32 Wi-FI Access Point" style="rounded=1;whiteSpace=wrap;html=1;strokeColor=#0000FF;" vertex="1" parent="1">
          <mxGeometry x="670" y="247" width="120" height="45" as="geometry" />
        </mxCell>
        <mxCell id="A5llq4PZ68e3I42jYt7O-40" style="edgeStyle=orthogonalEdgeStyle;rounded=0;orthogonalLoop=1;jettySize=auto;html=1;exitX=1;exitY=0.5;exitDx=0;exitDy=0;entryX=0;entryY=0.5;entryDx=0;entryDy=0;startArrow=none;startFill=0;" edge="1" parent="1" source="A5llq4PZ68e3I42jYt7O-7" target="A5llq4PZ68e3I42jYt7O-39">
          <mxGeometry relative="1" as="geometry" />
        </mxCell>
        <mxCell id="A5llq4PZ68e3I42jYt7O-7" value="Relative Position Calculation (x,y)" style="rounded=1;whiteSpace=wrap;html=1;strokeColor=#FF0000;" vertex="1" parent="1">
          <mxGeometry x="327.5" y="334.5" width="110" height="35" as="geometry" />
        </mxCell>
        <mxCell id="A5llq4PZ68e3I42jYt7O-9" value="GUI" style="rounded=1;whiteSpace=wrap;html=1;strokeColor=#FF0000;" vertex="1" parent="1">
          <mxGeometry x="530" y="409.5" width="30" height="27.5" as="geometry" />
        </mxCell>
        <mxCell id="A5llq4PZ68e3I42jYt7O-34" style="edgeStyle=orthogonalEdgeStyle;rounded=0;orthogonalLoop=1;jettySize=auto;html=1;exitX=0.5;exitY=0;exitDx=0;exitDy=0;entryX=0.5;entryY=1;entryDx=0;entryDy=0;startArrow=none;startFill=0;" edge="1" parent="1" source="A5llq4PZ68e3I42jYt7O-13" target="A5llq4PZ68e3I42jYt7O-7">
          <mxGeometry relative="1" as="geometry" />
        </mxCell>
        <mxCell id="A5llq4PZ68e3I42jYt7O-13" value="RSSI" style="rounded=1;whiteSpace=wrap;html=1;strokeColor=#FF0000;" vertex="1" parent="1">
          <mxGeometry x="360" y="429.5" width="45" height="30" as="geometry" />
        </mxCell>
        <mxCell id="A5llq4PZ68e3I42jYt7O-33" style="edgeStyle=orthogonalEdgeStyle;rounded=0;orthogonalLoop=1;jettySize=auto;html=1;exitX=0.5;exitY=1;exitDx=0;exitDy=0;entryX=0.5;entryY=0;entryDx=0;entryDy=0;startArrow=none;startFill=0;" edge="1" parent="1" source="A5llq4PZ68e3I42jYt7O-15" target="A5llq4PZ68e3I42jYt7O-7">
          <mxGeometry relative="1" as="geometry">
            <Array as="points">
              <mxPoint x="305" y="312" />
              <mxPoint x="383" y="312" />
            </Array>
          </mxGeometry>
        </mxCell>
        <mxCell id="A5llq4PZ68e3I42jYt7O-15" value="Angle of Arrival" style="rounded=1;whiteSpace=wrap;html=1;strokeColor=#0000FF;" vertex="1" parent="1">
          <mxGeometry x="260" y="262" width="90" height="30" as="geometry" />
        </mxCell>
        <mxCell id="A5llq4PZ68e3I42jYt7O-43" style="edgeStyle=orthogonalEdgeStyle;rounded=0;orthogonalLoop=1;jettySize=auto;html=1;exitX=0.5;exitY=1;exitDx=0;exitDy=0;entryX=0.5;entryY=0;entryDx=0;entryDy=0;startArrow=none;startFill=0;" edge="1" parent="1" source="A5llq4PZ68e3I42jYt7O-39" target="A5llq4PZ68e3I42jYt7O-42">
          <mxGeometry relative="1" as="geometry" />
        </mxCell>
        <mxCell id="A5llq4PZ68e3I42jYt7O-45" style="edgeStyle=orthogonalEdgeStyle;rounded=0;orthogonalLoop=1;jettySize=auto;html=1;exitX=0.5;exitY=1;exitDx=0;exitDy=0;entryX=0.5;entryY=0;entryDx=0;entryDy=0;startArrow=none;startFill=0;" edge="1" parent="1" source="A5llq4PZ68e3I42jYt7O-39" target="A5llq4PZ68e3I42jYt7O-9">
          <mxGeometry relative="1" as="geometry" />
        </mxCell>
        <mxCell id="A5llq4PZ68e3I42jYt7O-39" value="Absolute Position Calculation" style="rounded=1;whiteSpace=wrap;html=1;strokeColor=#0000FF;" vertex="1" parent="1">
          <mxGeometry x="490" y="304.5" width="110" height="30" as="geometry" />
        </mxCell>
        <mxCell id="A5llq4PZ68e3I42jYt7O-44" style="edgeStyle=orthogonalEdgeStyle;rounded=0;orthogonalLoop=1;jettySize=auto;html=1;exitX=0.5;exitY=1;exitDx=0;exitDy=0;entryX=0.5;entryY=0;entryDx=0;entryDy=0;startArrow=none;startFill=0;" edge="1" parent="1" source="A5llq4PZ68e3I42jYt7O-42" target="mKIfRyW66ifjaWt-kGTA-1">
          <mxGeometry relative="1" as="geometry" />
        </mxCell>
        <mxCell id="A5llq4PZ68e3I42jYt7O-42" value="Current And Future Position" style="rounded=1;whiteSpace=wrap;html=1;strokeColor=#FF0000;" vertex="1" parent="1">
          <mxGeometry x="425" y="412.5" width="90" height="30" as="geometry" />
        </mxCell>
        <mxCell id="A5llq4PZ68e3I42jYt7O-50" style="edgeStyle=orthogonalEdgeStyle;rounded=0;orthogonalLoop=1;jettySize=auto;html=1;exitX=0.5;exitY=0;exitDx=0;exitDy=0;entryX=1;entryY=0.5;entryDx=0;entryDy=0;startArrow=none;startFill=0;" edge="1" parent="1" source="A5llq4PZ68e3I42jYt7O-47" target="A5llq4PZ68e3I42jYt7O-39">
          <mxGeometry relative="1" as="geometry" />
        </mxCell>
        <mxCell id="A5llq4PZ68e3I42jYt7O-47" value="Check Position" style="rounded=1;whiteSpace=wrap;html=1;strokeColor=#2BFF39;" vertex="1" parent="1">
          <mxGeometry x="580" y="472.5" width="50" height="30" as="geometry" />
        </mxCell>
      </root>
    </mxGraphModel>
  </diagram>
</mxfile>
